<svg width="512" height="512" viewBox="0 0 512 512" fill="none" xmlns="http://www.w3.org/2000/svg">
<defs>
<linearGradient id="bg" x1="112" y1="104" x2="400" y2="424" gradientUnits="userSpaceOnUse">
<stop stop-color="#FFFDF2"/>
<stop offset="1" stop-color="#FFE8A3"/>
</linearGradient>
<linearGradient id="face" x1="176" y1="150" x2="344" y2="358" gradientUnits="userSpaceOnUse">
<stop stop-color="#FFE76A"/>
<stop offset="1" stop-color="#FFD23F"/>
</linearGradient>
<linearGradient id="bolt" x1="222" y1="334" x2="318" y2="426" gradientUnits="userSpaceOnUse">
<stop stop-color="#FFB74A"/>
<stop offset="1" stop-color="#FF8A00"/>
</linearGradient>
<filter id="shadow" x="70" y="36" width="372" height="420" filterUnits="userSpaceOnUse" color-interpolation-filters="sRGB">
<feFlood flood-opacity="0" result="BackgroundImageFix"/>
<feColorMatrix in="SourceAlpha" type="matrix" values="0 0 0 0 0 0 0 0 0 0 0 0 0 0 0 0 0 0 127 0" result="hardAlpha"/>
<feOffset dy="18"/>
<feGaussianBlur stdDeviation="16"/>
<feColorMatrix type="matrix" values="0 0 0 0 0.454902 0 0 0 0 0.294118 0 0 0 0 0.0588235 0 0 0 0.18 0"/>
<feBlend mode="normal" in2="BackgroundImageFix" result="effect1_dropShadow_1_1"/>
<feBlend mode="normal" in="SourceGraphic" in2="effect1_dropShadow_1_1" result="shape"/>
</filter>
</defs>
<g filter="url(#shadow)">
<path d="M180 140L148 66C142 52 151 36 166 36C173 36 180 40 184 47L228 122L180 140Z" fill="#FFD84D" stroke="#2B220D" stroke-width="16" stroke-linejoin="round"/>
<path d="M156 52L194 112L217 103L183 47C180 41 173 36 166 36C154 36 146 46 146 57C146 60 147 63 148 66L156 52Z" fill="#1F1A17"/>
<path d="M332 122L376 47C380 40 387 36 394 36C409 36 418 52 412 66L380 140L332 122Z" fill="#FFD84D" stroke="#2B220D" stroke-width="16" stroke-linejoin="round"/>
<path d="M329 103L352 112L390 52L398 66C399 63 400 60 400 57C400 46 392 36 380 36C373 36 366 41 363 47L329 103Z" fill="#1F1A17"/>
<circle cx="256" cy="262" r="166" fill="url(#bg)" stroke="#2B220D" stroke-width="16"/>
<circle cx="256" cy="256" r="122" fill="url(#face)" stroke="#2B220D" stroke-width="16"/>
<circle cx="200" cy="283" r="25" fill="#FF6B6B" stroke="#2B220D" stroke-width="12"/>
<circle cx="312" cy="283" r="25" fill="#FF6B6B" stroke="#2B220D" stroke-width="12"/>
<ellipse cx="214" cy="230" rx="14" ry="20" fill="#2B220D"/>
<path d="M281 232C288 218 309 218 316 232" stroke="#2B220D" stroke-width="14" stroke-linecap="round"/>
<path d="M228 315C246 332 266 332 284 315" stroke="#2B220D" stroke-width="12" stroke-linecap="round"/>
<path d="M182 186C196 174 214 169 232 170" stroke="#2B220D" stroke-width="10" stroke-linecap="round" opacity="0.7"/>
<path d="M280 172C298 170 316 175 330 186" stroke="#2B220D" stroke-width="10" stroke-linecap="round" opacity="0.7"/>
<path d="M242 336H284L266 380H308L248 450L266 392H222L242 336Z" fill="url(#bolt)" stroke="#2B220D" stroke-width="16" stroke-linejoin="round"/>
<circle cx="352" cy="162" r="18" fill="#FFF4BF" stroke="#2B220D" stroke-width="10"/>
<path d="M352 134V190" stroke="#2B220D" stroke-width="8" stroke-linecap="round"/>
<path d="M324 162H380" stroke="#2B220D" stroke-width="8" stroke-linecap="round"/>
</g>
</svg>
